// Music.c
// This program can use timer0A and timer1A ISR  
// playing your favorite song.
//
// For use with the TM4C123
// EE319K lab6 extra credit
// Program written by: Miguel Gonzalez and Nicholas Richards
// 1/17/21

#include "Sound.h"
#include "DAC.h"
#include <stdint.h>
#include "../inc/tm4c123gh6pm.h"

void Music_Init(void){
  // write this
  

}


// Play song, while button pushed or until end
void Music_PlaySong(void){
  #include <stdint.h>

#ifndef songfile
#define songfile
const uint8_t song[] = {
	0x4d, 0x54, 0x68, 0x64, 0x00, 0x00, 0x00, 0x06, 0x00, 0x01, 0x00, 0x01,
  0x01, 0x00, 0x4d, 0x54, 0x72, 0x6b, 0x00, 0x00, 0x02, 0xd1, 0x00, 0xff,
  0x58, 0x04, 0x02, 0x02, 0x18, 0x08, 0x00, 0xff, 0x51, 0x03, 0x09, 0x27,
  0xc0, 0x00, 0xff, 0x03, 0x05, 0x50, 0x69, 0x61, 0x6e, 0x6f, 0x00, 0xc0,
  0x00, 0x00, 0xb0, 0x79, 0x00, 0x00, 0xb0, 0x40, 0x00, 0x00, 0xb0, 0x0a,
  0x3f, 0x00, 0xb0, 0x07, 0x5f, 0x00, 0x90, 0x43, 0x4b, 0x00, 0xb0, 0x79,
  0x00, 0x00, 0xb0, 0x40, 0x00, 0x00, 0xb0, 0x0a, 0x3f, 0x00, 0xb0, 0x07,
  0x5f, 0x00, 0x90, 0x30, 0x43, 0x00, 0x90, 0x34, 0x43, 0x81, 0x37, 0x80,
  0x43, 0x00, 0x09, 0x90, 0x45, 0x58, 0x3d, 0x80, 0x45, 0x00, 0x03, 0x90,
  0x43, 0x50, 0x7a, 0x80, 0x43, 0x00, 0x06, 0x90, 0x41, 0x50, 0x67, 0x80,
  0x30, 0x00, 0x00, 0x80, 0x34, 0x00, 0x13, 0x80, 0x41, 0x00, 0x06, 0x90,
  0x40, 0x50, 0x00, 0x90, 0x30, 0x4a, 0x00, 0x90, 0x37, 0x4a, 0x7a, 0x80,
  0x40, 0x00, 0x06, 0x90, 0x41, 0x55, 0x7a, 0x80, 0x41, 0x00, 0x06, 0x90,
  0x43, 0x57, 0x81, 0x67, 0x80, 0x30, 0x00, 0x00, 0x80, 0x37, 0x00, 0x0d,
  0x80, 0x43, 0x00, 0x0c, 0x90, 0x3e, 0x4f, 0x00, 0x90, 0x2b, 0x44, 0x00,
  0x90, 0x32, 0x44, 0x7a, 0x80, 0x3e, 0x00, 0x06, 0x90, 0x40, 0x56, 0x7a,
  0x80, 0x40, 0x00, 0x06, 0x90, 0x41, 0x54, 0x81, 0x67, 0x80, 0x2b, 0x00,
  0x00, 0x80, 0x32, 0x00, 0x0d, 0x80, 0x41, 0x00, 0x0c, 0x90, 0x40, 0x52,
  0x00, 0x90, 0x30, 0x49, 0x00, 0x90, 0x37, 0x49, 0x7a, 0x80, 0x40, 0x00,
  0x06, 0x90, 0x41, 0x58, 0x7a, 0x80, 0x41, 0x00, 0x06, 0x90, 0x43, 0x56,
  0x81, 0x67, 0x80, 0x30, 0x00, 0x00, 0x80, 0x37, 0x00, 0x0d, 0x80, 0x43,
  0x00, 0x0c, 0x90, 0x43, 0x54, 0x00, 0x90, 0x30, 0x47, 0x00, 0x90, 0x34,
  0x47, 0x81, 0x37, 0x80, 0x43, 0x00, 0x09, 0x90, 0x45, 0x58, 0x3d, 0x80,
  0x45, 0x00, 0x03, 0x90, 0x43, 0x53, 0x7a, 0x80, 0x43, 0x00, 0x06, 0x90,
  0x41, 0x52, 0x67, 0x80, 0x30, 0x00, 0x00, 0x80, 0x34, 0x00, 0x13, 0x80,
  0x41, 0x00, 0x06, 0x90, 0x40, 0x51, 0x00, 0x90, 0x30, 0x48, 0x00, 0x90,
  0x37, 0x48, 0x7a, 0x80, 0x40, 0x00, 0x06, 0x90, 0x41, 0x55, 0x7a, 0x80,
  0x41, 0x00, 0x06, 0x90, 0x43, 0x55, 0x81, 0x67, 0x80, 0x30, 0x00, 0x00,
  0x80, 0x37, 0x00, 0x0d, 0x80, 0x43, 0x00, 0x0c, 0x90, 0x3e, 0x4c, 0x00,
  0x90, 0x2b, 0x48, 0x00, 0x90, 0x37, 0x48, 0x81, 0x74, 0x80, 0x3e, 0x00,
  0x0c, 0x90, 0x43, 0x58, 0x81, 0x67, 0x80, 0x2b, 0x00, 0x00, 0x80, 0x37,
  0x00, 0x0d, 0x80, 0x43, 0x00, 0x0c, 0x90, 0x40, 0x50, 0x00, 0x90, 0x30,
  0x46, 0x00, 0x90, 0x34, 0x46, 0x7a, 0x80, 0x40, 0x00, 0x06, 0x90, 0x3c,
  0x4e, 0x82, 0x67, 0x80, 0x30, 0x00, 0x00, 0x80, 0x34, 0x00, 0x06, 0x80,
  0x3c, 0x00, 0x13, 0x90, 0x43, 0x5d, 0x00, 0x90, 0x30, 0x47, 0x00, 0x90,
  0x34, 0x47, 0x81, 0x37, 0x80, 0x43, 0x00, 0x09, 0x90, 0x45, 0x57, 0x3d,
  0x80, 0x45, 0x00, 0x03, 0x90, 0x43, 0x53, 0x7a, 0x80, 0x43, 0x00, 0x06,
  0x90, 0x41, 0x50, 0x67, 0x80, 0x30, 0x00, 0x00, 0x80, 0x34, 0x00, 0x13,
  0x80, 0x41, 0x00, 0x06, 0x90, 0x40, 0x51, 0x00, 0x90, 0x30, 0x49, 0x00,
  0x90, 0x37, 0x49, 0x7a, 0x80, 0x40, 0x00, 0x06, 0x90, 0x41, 0x54, 0x7a,
  0x80, 0x41, 0x00, 0x06, 0x90, 0x43, 0x56, 0x81, 0x67, 0x80, 0x30, 0x00,
  0x00, 0x80, 0x37, 0x00, 0x0d, 0x80, 0x43, 0x00, 0x0c, 0x90, 0x3e, 0x51,
  0x00, 0x90, 0x2b, 0x41, 0x00, 0x90, 0x32, 0x41, 0x7a, 0x80, 0x3e, 0x00,
  0x06, 0x90, 0x40, 0x55, 0x7a, 0x80, 0x40, 0x00, 0x06, 0x90, 0x41, 0x57,
  0x81, 0x67, 0x80, 0x2b, 0x00, 0x00, 0x80, 0x32, 0x00, 0x0d, 0x80, 0x41,
  0x00, 0x0c, 0x90, 0x40, 0x51, 0x00, 0x90, 0x30, 0x4a, 0x00, 0x90, 0x37,
  0x4a, 0x7a, 0x80, 0x40, 0x00, 0x06, 0x90, 0x41, 0x56, 0x7a, 0x80, 0x41,
  0x00, 0x06, 0x90, 0x43, 0x5a, 0x81, 0x67, 0x80, 0x30, 0x00, 0x00, 0x80,
  0x37, 0x00, 0x0d, 0x80, 0x43, 0x00, 0x0c, 0x90, 0x43, 0x53, 0x00, 0x90,
  0x30, 0x46, 0x00, 0x90, 0x34, 0x46, 0x81, 0x37, 0x80, 0x43, 0x00, 0x09,
  0x90, 0x45, 0x56, 0x3d, 0x80, 0x45, 0x00, 0x03, 0x90, 0x43, 0x53, 0x7a,
  0x80, 0x43, 0x00, 0x06, 0x90, 0x41, 0x51, 0x67, 0x80, 0x30, 0x00, 0x00,
  0x80, 0x34, 0x00, 0x13, 0x80, 0x41, 0x00, 0x06, 0x90, 0x40, 0x51, 0x00,
  0x90, 0x30, 0x47, 0x00, 0x90, 0x37, 0x47, 0x7a, 0x80, 0x40, 0x00, 0x06,
  0x90, 0x41, 0x56, 0x7a, 0x80, 0x41, 0x00, 0x06, 0x90, 0x43, 0x57, 0x81,
  0x67, 0x80, 0x30, 0x00, 0x00, 0x80, 0x37, 0x00, 0x0d, 0x80, 0x43, 0x00,
  0x0c, 0x90, 0x3e, 0x4f, 0x00, 0x90, 0x2b, 0x4a, 0x00, 0x90, 0x37, 0x4a,
  0x81, 0x74, 0x80, 0x3e, 0x00, 0x0c, 0x90, 0x43, 0x57, 0x81, 0x67, 0x80,
  0x2b, 0x00, 0x00, 0x80, 0x37, 0x00, 0x0d, 0x80, 0x43, 0x00, 0x0c, 0x90,
  0x40, 0x50, 0x00, 0x90, 0x30, 0x47, 0x00, 0x90, 0x34, 0x47, 0x7a, 0x80,
  0x40, 0x00, 0x06, 0x90, 0x3c, 0x50, 0x82, 0x67, 0x80, 0x30, 0x00, 0x00,
  0x80, 0x34, 0x00, 0x06, 0x80, 0x3c, 0x00, 0x24, 0xff, 0x2f, 0x00
};
#endif
}

// Stop song
void Music_StopSong(void){
   // write this
  // extra credit

}

// Timer0A actually controls outputting to DAC
void Timer0A_Handler(void){
    // write this
  // extra credit

}

  // Timer1A acts as a metronome for the song(s)
void Timer1A_Handler(void){
    // write this
  // extra credit


}
#define NVIC_EN0_INT19          0x00080000  // Interrupt 19 enable
#define NVIC_EN0_INT21          0x00200000  // Interrupt 21 enable

// ***************** Timer_Init ****************
// Activate Timer0A and Timer1A interrupts to run user task periodically
// Inputs: period0 in nsec
//         period1 in msec
// Outputs: none
void Timer_Init(unsigned int period0, unsigned int period1){ uint32_t volatile delay;
   // write this
  // extra credit

}
void Timer_Stop(void){ 
    // write this
  // extra credit

}

